<svg width="779" height="339" viewBox="0 0 779 339" fill="none" xmlns="http://www.w3.org/2000/svg">
<path d="M16.4 124.4H54.8L92.6 223.6L130.8 124.4H168.8V266H144.8V148.4H144.4L101.4 266H83.8L40.8 148.4H40.4V266H16.4V124.4ZM199.156 170H223.156V266H199.156V170ZM195.756 137.4C195.756 133.533 197.156 130.2 199.956 127.4C202.89 124.467 206.556 123 210.956 123C215.356 123 219.023 124.4 221.956 127.2C225.023 129.867 226.556 133.267 226.556 137.4C226.556 141.533 225.023 145 221.956 147.8C219.023 150.467 215.356 151.8 210.956 151.8C206.556 151.8 202.89 150.4 199.956 147.6C197.156 144.667 195.756 141.267 195.756 137.4ZM251.109 114.8H275.109V266H251.109V114.8ZM303.258 114.8H327.258V266H303.258V114.8ZM426.411 154.8C423.744 150.933 420.144 148.133 415.611 146.4C411.211 144.533 406.544 143.6 401.611 143.6C398.678 143.6 395.811 143.933 393.011 144.6C390.344 145.267 387.878 146.333 385.611 147.8C383.478 149.267 381.744 151.2 380.411 153.6C379.078 155.867 378.411 158.6 378.411 161.8C378.411 166.6 380.078 170.267 383.411 172.8C386.744 175.333 390.878 177.533 395.811 179.4C400.744 181.267 406.144 183.067 412.011 184.8C417.878 186.533 423.278 188.933 428.211 192C433.144 195.067 437.278 199.133 440.611 204.2C443.944 209.267 445.611 216 445.611 224.4C445.611 232 444.211 238.667 441.411 244.4C438.611 250 434.811 254.667 430.011 258.4C425.344 262.133 419.878 264.933 413.611 266.8C407.344 268.667 400.744 269.6 393.811 269.6C385.011 269.6 376.544 268.133 368.411 265.2C360.278 262.267 353.278 257.333 347.411 250.4L366.411 232C369.478 236.667 373.478 240.333 378.411 243C383.478 245.533 388.811 246.8 394.411 246.8C397.344 246.8 400.278 246.4 403.211 245.6C406.144 244.8 408.811 243.6 411.211 242C413.611 240.4 415.544 238.4 417.011 236C418.478 233.467 419.211 230.6 419.211 227.4C419.211 222.2 417.544 218.2 414.211 215.4C410.878 212.6 406.744 210.267 401.811 208.4C396.878 206.4 391.478 204.533 385.611 202.8C379.744 201.067 374.344 198.733 369.411 195.8C364.478 192.733 360.344 188.733 357.011 183.8C353.678 178.733 352.011 172 352.011 163.6C352.011 156.267 353.478 149.933 356.411 144.6C359.478 139.267 363.411 134.867 368.211 131.4C373.144 127.8 378.744 125.133 385.011 123.4C391.278 121.667 397.678 120.8 404.211 120.8C411.678 120.8 418.878 121.933 425.811 124.2C432.878 126.467 439.211 130.2 444.811 135.4L426.411 154.8ZM529.655 252.8H529.055C525.588 258.267 521.188 262.267 515.855 264.8C510.521 267.2 504.655 268.4 498.255 268.4C493.855 268.4 489.521 267.8 485.255 266.6C481.121 265.4 477.388 263.6 474.055 261.2C470.855 258.8 468.255 255.8 466.255 252.2C464.255 248.6 463.255 244.4 463.255 239.6C463.255 234.4 464.188 230 466.055 226.4C467.921 222.667 470.388 219.6 473.455 217.2C476.655 214.667 480.321 212.667 484.455 211.2C488.588 209.733 492.855 208.667 497.255 208C501.788 207.2 506.321 206.733 510.855 206.6C515.388 206.333 519.655 206.2 523.655 206.2H529.655V203.6C529.655 197.6 527.588 193.133 523.455 190.2C519.321 187.133 514.055 185.6 507.655 185.6C502.588 185.6 497.855 186.533 493.455 188.4C489.055 190.133 485.255 192.533 482.055 195.6L469.455 183C474.788 177.533 480.988 173.6 488.055 171.2C495.255 168.8 502.655 167.6 510.255 167.6C517.055 167.6 522.788 168.4 527.455 170C532.121 171.467 535.988 173.4 539.055 175.8C542.121 178.2 544.455 181 546.055 184.2C547.788 187.267 548.988 190.4 549.655 193.6C550.455 196.8 550.921 199.933 551.055 203C551.188 205.933 551.255 208.533 551.255 210.8V266H529.655V252.8ZM528.255 223H523.255C519.921 223 516.188 223.133 512.055 223.4C507.921 223.667 503.988 224.333 500.255 225.4C496.655 226.333 493.588 227.8 491.055 229.8C488.521 231.667 487.255 234.333 487.255 237.8C487.255 240.067 487.721 242 488.655 243.6C489.721 245.067 491.055 246.333 492.655 247.4C494.255 248.467 496.055 249.267 498.055 249.8C500.055 250.2 502.055 250.4 504.055 250.4C512.321 250.4 518.388 248.467 522.255 244.6C526.255 240.6 528.255 235.2 528.255 228.4V223ZM577.077 170H599.877V184.4H600.277C603.743 178.533 608.41 174.267 614.277 171.6C620.143 168.933 626.477 167.6 633.277 167.6C640.61 167.6 647.21 168.933 653.077 171.6C658.943 174.133 663.943 177.667 668.077 182.2C672.21 186.733 675.343 192.067 677.477 198.2C679.61 204.333 680.677 210.933 680.677 218C680.677 225.067 679.543 231.667 677.277 237.8C675.01 243.933 671.81 249.267 667.677 253.8C663.677 258.333 658.81 261.933 653.077 264.6C647.343 267.133 641.077 268.4 634.277 268.4C629.743 268.4 625.743 267.933 622.277 267C618.81 266.067 615.743 264.867 613.077 263.4C610.41 261.933 608.143 260.4 606.277 258.8C604.41 257.067 602.877 255.4 601.677 253.8H601.077V311.6H577.077V170ZM656.677 218C656.677 214.267 656.01 210.667 654.677 207.2C653.477 203.733 651.61 200.667 649.077 198C646.677 195.333 643.743 193.2 640.277 191.6C636.81 190 632.877 189.2 628.477 189.2C624.077 189.2 620.143 190 616.677 191.6C613.21 193.2 610.21 195.333 607.677 198C605.277 200.667 603.41 203.733 602.077 207.2C600.877 210.667 600.277 214.267 600.277 218C600.277 221.733 600.877 225.333 602.077 228.8C603.41 232.267 605.277 235.333 607.677 238C610.21 240.667 613.21 242.8 616.677 244.4C620.143 246 624.077 246.8 628.477 246.8C632.877 246.8 636.81 246 640.277 244.4C643.743 242.8 646.677 240.667 649.077 238C651.61 235.333 653.477 232.267 654.677 228.8C656.01 225.333 656.677 221.733 656.677 218ZM754.253 196.6C749.586 190.067 743.32 186.8 735.453 186.8C732.253 186.8 729.12 187.6 726.053 189.2C722.986 190.8 721.453 193.4 721.453 197C721.453 199.933 722.72 202.067 725.253 203.4C727.786 204.733 730.986 205.867 734.853 206.8C738.72 207.733 742.853 208.733 747.253 209.8C751.786 210.733 755.986 212.267 759.853 214.4C763.72 216.4 766.92 219.2 769.453 222.8C771.986 226.4 773.253 231.333 773.253 237.6C773.253 243.333 771.986 248.2 769.453 252.2C767.053 256.067 763.853 259.2 759.853 261.6C755.986 264 751.586 265.733 746.653 266.8C741.72 267.867 736.786 268.4 731.853 268.4C724.386 268.4 717.52 267.333 711.253 265.2C704.986 263.067 699.386 259.2 694.453 253.6L710.453 238.6C713.52 242.067 716.786 244.933 720.253 247.2C723.853 249.333 728.186 250.4 733.253 250.4C734.986 250.4 736.786 250.2 738.653 249.8C740.52 249.4 742.253 248.733 743.853 247.8C745.453 246.867 746.72 245.733 747.653 244.4C748.72 242.933 749.253 241.267 749.253 239.4C749.253 236.067 747.986 233.6 745.453 232C742.92 230.4 739.72 229.133 735.853 228.2C731.986 227.133 727.786 226.2 723.253 225.4C718.853 224.467 714.72 223.067 710.853 221.2C706.986 219.2 703.786 216.467 701.253 213C698.72 209.533 697.453 204.733 697.453 198.6C697.453 193.267 698.52 188.667 700.653 184.8C702.92 180.8 705.853 177.533 709.453 175C713.053 172.467 717.186 170.6 721.853 169.4C726.52 168.2 731.253 167.6 736.053 167.6C742.453 167.6 748.786 168.733 755.053 171C761.32 173.133 766.386 176.867 770.253 182.2L754.253 196.6Z" fill="white"/>
<path d="M180.213 66V23.16H207.273V30.66H189.273V39.6H192.873C196.913 39.6 200.213 40.16 202.773 41.28C205.373 42.4 207.293 43.94 208.533 45.9C209.773 47.86 210.393 50.1 210.393 52.62C210.393 55.42 209.773 57.82 208.533 59.82C207.293 61.82 205.373 63.36 202.773 64.44C200.173 65.48 196.813 66 192.693 66H180.213ZM192.333 58.56C195.093 58.56 197.253 58.12 198.813 57.24C200.413 56.36 201.213 54.82 201.213 52.62C201.213 51.1 200.813 49.94 200.013 49.14C199.253 48.34 198.153 47.8 196.713 47.52C195.313 47.2 193.613 47.04 191.613 47.04H189.273V58.56H192.333ZM238.814 66V30.72H228.074V23.16H247.874V39.6H251.474C255.514 39.6 258.814 40.16 261.374 41.28C263.974 42.4 265.894 43.94 267.134 45.9C268.374 47.86 268.994 50.1 268.994 52.62C268.994 55.42 268.374 57.82 267.134 59.82C265.894 61.82 263.974 63.36 261.374 64.44C258.774 65.48 255.414 66 251.294 66H238.814ZM250.934 58.56C253.694 58.56 255.854 58.12 257.414 57.24C259.014 56.36 259.814 54.82 259.814 52.62C259.814 51.1 259.414 49.94 258.614 49.14C257.854 48.34 256.754 47.8 255.314 47.52C253.914 47.2 252.214 47.04 250.214 47.04H247.874V58.56H250.934ZM325.968 66H316.908V30.72H306.408C306.168 32.56 305.908 34.56 305.628 36.72C305.388 38.88 305.108 41.08 304.788 43.32C304.508 45.52 304.208 47.62 303.888 49.62C303.568 51.58 303.248 53.32 302.928 54.84C302.408 57.32 301.708 59.44 300.828 61.2C299.988 62.96 298.808 64.3 297.288 65.22C295.808 66.14 293.868 66.6 291.468 66.6C290.668 66.6 289.908 66.54 289.188 66.42C288.468 66.3 287.788 66.14 287.148 65.94V58.5C287.668 58.66 288.168 58.8 288.648 58.92C289.168 59.04 289.728 59.1 290.328 59.1C291.128 59.1 291.788 58.84 292.308 58.32C292.828 57.8 293.288 56.92 293.688 55.68C294.088 54.4 294.488 52.64 294.888 50.4C295.088 49.44 295.328 48.08 295.608 46.32C295.888 44.52 296.208 42.42 296.568 40.02C296.968 37.58 297.368 34.94 297.768 32.1C298.168 29.22 298.548 26.24 298.908 23.16H325.968V66ZM378.835 23.16V30.66H360.835V66H351.775V23.16H378.835ZM422.409 66L419.289 55.8H403.689L400.569 66H390.789L405.909 22.98H417.009L432.189 66H422.409ZM414.009 38.22C413.809 37.54 413.549 36.68 413.229 35.64C412.909 34.6 412.589 33.54 412.269 32.46C411.949 31.38 411.689 30.44 411.489 29.64C411.289 30.44 411.009 31.44 410.649 32.64C410.329 33.8 410.009 34.92 409.689 36C409.409 37.04 409.189 37.78 409.029 38.22L405.969 48.18H417.129L414.009 38.22ZM466.295 23.16C471.815 23.16 475.835 24.36 478.355 26.76C480.915 29.12 482.195 32.38 482.195 36.54C482.195 38.42 481.915 40.22 481.355 41.94C480.795 43.62 479.855 45.14 478.535 46.5C477.255 47.82 475.555 48.86 473.435 49.62C471.315 50.38 468.695 50.76 465.575 50.76H461.675V66H452.615V23.16H466.295ZM465.815 30.6H461.675V43.32H464.675C466.395 43.32 467.875 43.1 469.115 42.66C470.355 42.22 471.315 41.52 471.995 40.56C472.675 39.6 473.015 38.36 473.015 36.84C473.015 34.72 472.435 33.16 471.275 32.16C470.115 31.12 468.295 30.6 465.815 30.6ZM505.291 23.16H513.451V43.86C513.451 44.86 513.431 45.98 513.391 47.22C513.351 48.46 513.311 49.68 513.271 50.88C513.231 52.04 513.191 53.06 513.151 53.94C513.111 54.78 513.071 55.36 513.031 55.68H513.211L533.011 23.16H543.871V66H535.771V45.42C535.771 44.34 535.791 43.16 535.831 41.88C535.871 40.56 535.911 39.3 535.951 38.1C536.031 36.9 536.091 35.86 536.131 34.98C536.211 34.06 536.271 33.46 536.311 33.18H536.071L516.211 66H505.291V23.16ZM584.085 49.56L574.065 66H563.985L576.165 47.16C575.005 46.68 573.845 45.98 572.685 45.06C571.525 44.1 570.565 42.84 569.805 41.28C569.045 39.68 568.665 37.72 568.665 35.4C568.665 31.44 570.085 28.42 572.925 26.34C575.765 24.22 579.745 23.16 584.865 23.16H598.785V66H589.725V49.56H584.085ZM585.225 30.6C583.665 30.6 582.325 30.78 581.205 31.14C580.125 31.5 579.285 32.08 578.685 32.88C578.125 33.68 577.845 34.74 577.845 36.06C577.845 37.94 578.465 39.44 579.705 40.56C580.985 41.64 582.905 42.18 585.465 42.18H589.725V30.6H585.225Z" fill="white"/>
</svg>
