<svg width="779" height="331" viewBox="0 0 779 331" fill="none" xmlns="http://www.w3.org/2000/svg">
<path d="M16.4 116.4H54.8L92.6 215.6L130.8 116.4H168.8V258H144.8V140.4H144.4L101.4 258H83.8L40.8 140.4H40.4V258H16.4V116.4ZM199.156 162H223.156V258H199.156V162ZM195.756 129.4C195.756 125.533 197.156 122.2 199.956 119.4C202.89 116.467 206.556 115 210.956 115C215.356 115 219.023 116.4 221.956 119.2C225.023 121.867 226.556 125.267 226.556 129.4C226.556 133.533 225.023 137 221.956 139.8C219.023 142.467 215.356 143.8 210.956 143.8C206.556 143.8 202.89 142.4 199.956 139.6C197.156 136.667 195.756 133.267 195.756 129.4ZM251.109 106.8H275.109V258H251.109V106.8ZM303.258 106.8H327.258V258H303.258V106.8ZM426.411 146.8C423.744 142.933 420.144 140.133 415.611 138.4C411.211 136.533 406.544 135.6 401.611 135.6C398.678 135.6 395.811 135.933 393.011 136.6C390.344 137.267 387.878 138.333 385.611 139.8C383.478 141.267 381.744 143.2 380.411 145.6C379.078 147.867 378.411 150.6 378.411 153.8C378.411 158.6 380.078 162.267 383.411 164.8C386.744 167.333 390.878 169.533 395.811 171.4C400.744 173.267 406.144 175.067 412.011 176.8C417.878 178.533 423.278 180.933 428.211 184C433.144 187.067 437.278 191.133 440.611 196.2C443.944 201.267 445.611 208 445.611 216.4C445.611 224 444.211 230.667 441.411 236.4C438.611 242 434.811 246.667 430.011 250.4C425.344 254.133 419.878 256.933 413.611 258.8C407.344 260.667 400.744 261.6 393.811 261.6C385.011 261.6 376.544 260.133 368.411 257.2C360.278 254.267 353.278 249.333 347.411 242.4L366.411 224C369.478 228.667 373.478 232.333 378.411 235C383.478 237.533 388.811 238.8 394.411 238.8C397.344 238.8 400.278 238.4 403.211 237.6C406.144 236.8 408.811 235.6 411.211 234C413.611 232.4 415.544 230.4 417.011 228C418.478 225.467 419.211 222.6 419.211 219.4C419.211 214.2 417.544 210.2 414.211 207.4C410.878 204.6 406.744 202.267 401.811 200.4C396.878 198.4 391.478 196.533 385.611 194.8C379.744 193.067 374.344 190.733 369.411 187.8C364.478 184.733 360.344 180.733 357.011 175.8C353.678 170.733 352.011 164 352.011 155.6C352.011 148.267 353.478 141.933 356.411 136.6C359.478 131.267 363.411 126.867 368.211 123.4C373.144 119.8 378.744 117.133 385.011 115.4C391.278 113.667 397.678 112.8 404.211 112.8C411.678 112.8 418.878 113.933 425.811 116.2C432.878 118.467 439.211 122.2 444.811 127.4L426.411 146.8ZM529.655 244.8H529.055C525.588 250.267 521.188 254.267 515.855 256.8C510.521 259.2 504.655 260.4 498.255 260.4C493.855 260.4 489.521 259.8 485.255 258.6C481.121 257.4 477.388 255.6 474.055 253.2C470.855 250.8 468.255 247.8 466.255 244.2C464.255 240.6 463.255 236.4 463.255 231.6C463.255 226.4 464.188 222 466.055 218.4C467.921 214.667 470.388 211.6 473.455 209.2C476.655 206.667 480.321 204.667 484.455 203.2C488.588 201.733 492.855 200.667 497.255 200C501.788 199.2 506.321 198.733 510.855 198.6C515.388 198.333 519.655 198.2 523.655 198.2H529.655V195.6C529.655 189.6 527.588 185.133 523.455 182.2C519.321 179.133 514.055 177.6 507.655 177.6C502.588 177.6 497.855 178.533 493.455 180.4C489.055 182.133 485.255 184.533 482.055 187.6L469.455 175C474.788 169.533 480.988 165.6 488.055 163.2C495.255 160.8 502.655 159.6 510.255 159.6C517.055 159.6 522.788 160.4 527.455 162C532.121 163.467 535.988 165.4 539.055 167.8C542.121 170.2 544.455 173 546.055 176.2C547.788 179.267 548.988 182.4 549.655 185.6C550.455 188.8 550.921 191.933 551.055 195C551.188 197.933 551.255 200.533 551.255 202.8V258H529.655V244.8ZM528.255 215H523.255C519.921 215 516.188 215.133 512.055 215.4C507.921 215.667 503.988 216.333 500.255 217.4C496.655 218.333 493.588 219.8 491.055 221.8C488.521 223.667 487.255 226.333 487.255 229.8C487.255 232.067 487.721 234 488.655 235.6C489.721 237.067 491.055 238.333 492.655 239.4C494.255 240.467 496.055 241.267 498.055 241.8C500.055 242.2 502.055 242.4 504.055 242.4C512.321 242.4 518.388 240.467 522.255 236.6C526.255 232.6 528.255 227.2 528.255 220.4V215ZM577.077 162H599.877V176.4H600.277C603.743 170.533 608.41 166.267 614.277 163.6C620.143 160.933 626.477 159.6 633.277 159.6C640.61 159.6 647.21 160.933 653.077 163.6C658.943 166.133 663.943 169.667 668.077 174.2C672.21 178.733 675.343 184.067 677.477 190.2C679.61 196.333 680.677 202.933 680.677 210C680.677 217.067 679.543 223.667 677.277 229.8C675.01 235.933 671.81 241.267 667.677 245.8C663.677 250.333 658.81 253.933 653.077 256.6C647.343 259.133 641.077 260.4 634.277 260.4C629.743 260.4 625.743 259.933 622.277 259C618.81 258.067 615.743 256.867 613.077 255.4C610.41 253.933 608.143 252.4 606.277 250.8C604.41 249.067 602.877 247.4 601.677 245.8H601.077V303.6H577.077V162ZM656.677 210C656.677 206.267 656.01 202.667 654.677 199.2C653.477 195.733 651.61 192.667 649.077 190C646.677 187.333 643.743 185.2 640.277 183.6C636.81 182 632.877 181.2 628.477 181.2C624.077 181.2 620.143 182 616.677 183.6C613.21 185.2 610.21 187.333 607.677 190C605.277 192.667 603.41 195.733 602.077 199.2C600.877 202.667 600.277 206.267 600.277 210C600.277 213.733 600.877 217.333 602.077 220.8C603.41 224.267 605.277 227.333 607.677 230C610.21 232.667 613.21 234.8 616.677 236.4C620.143 238 624.077 238.8 628.477 238.8C632.877 238.8 636.81 238 640.277 236.4C643.743 234.8 646.677 232.667 649.077 230C651.61 227.333 653.477 224.267 654.677 220.8C656.01 217.333 656.677 213.733 656.677 210ZM754.253 188.6C749.586 182.067 743.32 178.8 735.453 178.8C732.253 178.8 729.12 179.6 726.053 181.2C722.986 182.8 721.453 185.4 721.453 189C721.453 191.933 722.72 194.067 725.253 195.4C727.786 196.733 730.986 197.867 734.853 198.8C738.72 199.733 742.853 200.733 747.253 201.8C751.786 202.733 755.986 204.267 759.853 206.4C763.72 208.4 766.92 211.2 769.453 214.8C771.986 218.4 773.253 223.333 773.253 229.6C773.253 235.333 771.986 240.2 769.453 244.2C767.053 248.067 763.853 251.2 759.853 253.6C755.986 256 751.586 257.733 746.653 258.8C741.72 259.867 736.786 260.4 731.853 260.4C724.386 260.4 717.52 259.333 711.253 257.2C704.986 255.067 699.386 251.2 694.453 245.6L710.453 230.6C713.52 234.067 716.786 236.933 720.253 239.2C723.853 241.333 728.186 242.4 733.253 242.4C734.986 242.4 736.786 242.2 738.653 241.8C740.52 241.4 742.253 240.733 743.853 239.8C745.453 238.867 746.72 237.733 747.653 236.4C748.72 234.933 749.253 233.267 749.253 231.4C749.253 228.067 747.986 225.6 745.453 224C742.92 222.4 739.72 221.133 735.853 220.2C731.986 219.133 727.786 218.2 723.253 217.4C718.853 216.467 714.72 215.067 710.853 213.2C706.986 211.2 703.786 208.467 701.253 205C698.72 201.533 697.453 196.733 697.453 190.6C697.453 185.267 698.52 180.667 700.653 176.8C702.92 172.8 705.853 169.533 709.453 167C713.053 164.467 717.186 162.6 721.853 161.4C726.52 160.2 731.253 159.6 736.053 159.6C742.453 159.6 748.786 160.733 755.053 163C761.32 165.133 766.386 168.867 770.253 174.2L754.253 188.6Z" fill="white"/>
<path d="M270.449 58V14.3636H299.852V21.9702H279.675V32.3679H298.339V39.9744H279.675V50.3935H299.938V58H270.449ZM326.187 58V14.3636H355.591V21.9702H335.413V32.3679H354.078V39.9744H335.413V50.3935H355.676V58H326.187ZM405.597 26.9134C405.427 25.1946 404.695 23.8594 403.403 22.9077C402.11 21.956 400.356 21.4801 398.14 21.4801C396.634 21.4801 395.363 21.6932 394.326 22.1193C393.289 22.5312 392.494 23.1065 391.94 23.8452C391.4 24.5838 391.13 25.4219 391.13 26.3594C391.102 27.1406 391.265 27.8224 391.62 28.4048C391.989 28.9872 392.494 29.4915 393.133 29.9176C393.772 30.3295 394.511 30.6918 395.349 31.0043C396.187 31.3026 397.082 31.5582 398.033 31.7713L401.954 32.7088C403.857 33.1349 405.604 33.7031 407.195 34.4134C408.786 35.1236 410.164 35.9972 411.329 37.0341C412.494 38.071 413.396 39.2926 414.035 40.6989C414.688 42.1051 415.022 43.7173 415.036 45.5355C415.022 48.206 414.34 50.5213 412.991 52.4815C411.656 54.4276 409.724 55.9403 407.195 57.0199C404.681 58.0852 401.648 58.6179 398.097 58.6179C394.575 58.6179 391.506 58.0781 388.893 56.9986C386.293 55.919 384.262 54.321 382.799 52.2045C381.35 50.0739 380.59 47.4389 380.519 44.2997H389.447C389.546 45.7628 389.965 46.9844 390.704 47.9645C391.457 48.9304 392.458 49.6619 393.708 50.1591C394.972 50.642 396.4 50.8835 397.991 50.8835C399.553 50.8835 400.91 50.6562 402.06 50.2017C403.225 49.7472 404.127 49.1151 404.766 48.3054C405.406 47.4957 405.725 46.5653 405.725 45.5142C405.725 44.5341 405.434 43.7102 404.852 43.0426C404.283 42.375 403.445 41.8068 402.337 41.3381C401.244 40.8693 399.901 40.4432 398.31 40.0597L393.559 38.8665C389.88 37.9716 386.975 36.5724 384.844 34.669C382.714 32.7656 381.656 30.2017 381.67 26.9773C381.656 24.3352 382.359 22.027 383.779 20.0526C385.214 18.0781 387.181 16.5369 389.681 15.429C392.181 14.321 395.022 13.767 398.204 13.767C401.442 13.767 404.269 14.321 406.684 15.429C409.113 16.5369 411.002 18.0781 412.352 20.0526C413.701 22.027 414.397 24.3139 414.44 26.9134H405.597ZM438.58 21.9702V14.3636H474.418V21.9702H461.059V58H451.939V21.9702H438.58ZM508.546 14.3636V58H499.32V14.3636H508.546Z" fill="white"/>
</svg>
