<svg width="779" height="331" viewBox="0 0 779 331" fill="none" xmlns="http://www.w3.org/2000/svg">
<path d="M16.4 116.4H54.8L92.6 215.6L130.8 116.4H168.8V258H144.8V140.4H144.4L101.4 258H83.8L40.8 140.4H40.4V258H16.4V116.4ZM199.156 162H223.156V258H199.156V162ZM195.756 129.4C195.756 125.533 197.156 122.2 199.956 119.4C202.89 116.467 206.556 115 210.956 115C215.356 115 219.023 116.4 221.956 119.2C225.023 121.867 226.556 125.267 226.556 129.4C226.556 133.533 225.023 137 221.956 139.8C219.023 142.467 215.356 143.8 210.956 143.8C206.556 143.8 202.89 142.4 199.956 139.6C197.156 136.667 195.756 133.267 195.756 129.4ZM251.109 106.8H275.109V258H251.109V106.8ZM303.258 106.8H327.258V258H303.258V106.8ZM426.411 146.8C423.744 142.933 420.144 140.133 415.611 138.4C411.211 136.533 406.544 135.6 401.611 135.6C398.678 135.6 395.811 135.933 393.011 136.6C390.344 137.267 387.878 138.333 385.611 139.8C383.478 141.267 381.744 143.2 380.411 145.6C379.078 147.867 378.411 150.6 378.411 153.8C378.411 158.6 380.078 162.267 383.411 164.8C386.744 167.333 390.878 169.533 395.811 171.4C400.744 173.267 406.144 175.067 412.011 176.8C417.878 178.533 423.278 180.933 428.211 184C433.144 187.067 437.278 191.133 440.611 196.2C443.944 201.267 445.611 208 445.611 216.4C445.611 224 444.211 230.667 441.411 236.4C438.611 242 434.811 246.667 430.011 250.4C425.344 254.133 419.878 256.933 413.611 258.8C407.344 260.667 400.744 261.6 393.811 261.6C385.011 261.6 376.544 260.133 368.411 257.2C360.278 254.267 353.278 249.333 347.411 242.4L366.411 224C369.478 228.667 373.478 232.333 378.411 235C383.478 237.533 388.811 238.8 394.411 238.8C397.344 238.8 400.278 238.4 403.211 237.6C406.144 236.8 408.811 235.6 411.211 234C413.611 232.4 415.544 230.4 417.011 228C418.478 225.467 419.211 222.6 419.211 219.4C419.211 214.2 417.544 210.2 414.211 207.4C410.878 204.6 406.744 202.267 401.811 200.4C396.878 198.4 391.478 196.533 385.611 194.8C379.744 193.067 374.344 190.733 369.411 187.8C364.478 184.733 360.344 180.733 357.011 175.8C353.678 170.733 352.011 164 352.011 155.6C352.011 148.267 353.478 141.933 356.411 136.6C359.478 131.267 363.411 126.867 368.211 123.4C373.144 119.8 378.744 117.133 385.011 115.4C391.278 113.667 397.678 112.8 404.211 112.8C411.678 112.8 418.878 113.933 425.811 116.2C432.878 118.467 439.211 122.2 444.811 127.4L426.411 146.8ZM529.655 244.8H529.055C525.588 250.267 521.188 254.267 515.855 256.8C510.521 259.2 504.655 260.4 498.255 260.4C493.855 260.4 489.521 259.8 485.255 258.6C481.121 257.4 477.388 255.6 474.055 253.2C470.855 250.8 468.255 247.8 466.255 244.2C464.255 240.6 463.255 236.4 463.255 231.6C463.255 226.4 464.188 222 466.055 218.4C467.921 214.667 470.388 211.6 473.455 209.2C476.655 206.667 480.321 204.667 484.455 203.2C488.588 201.733 492.855 200.667 497.255 200C501.788 199.2 506.321 198.733 510.855 198.6C515.388 198.333 519.655 198.2 523.655 198.2H529.655V195.6C529.655 189.6 527.588 185.133 523.455 182.2C519.321 179.133 514.055 177.6 507.655 177.6C502.588 177.6 497.855 178.533 493.455 180.4C489.055 182.133 485.255 184.533 482.055 187.6L469.455 175C474.788 169.533 480.988 165.6 488.055 163.2C495.255 160.8 502.655 159.6 510.255 159.6C517.055 159.6 522.788 160.4 527.455 162C532.121 163.467 535.988 165.4 539.055 167.8C542.121 170.2 544.455 173 546.055 176.2C547.788 179.267 548.988 182.4 549.655 185.6C550.455 188.8 550.921 191.933 551.055 195C551.188 197.933 551.255 200.533 551.255 202.8V258H529.655V244.8ZM528.255 215H523.255C519.921 215 516.188 215.133 512.055 215.4C507.921 215.667 503.988 216.333 500.255 217.4C496.655 218.333 493.588 219.8 491.055 221.8C488.521 223.667 487.255 226.333 487.255 229.8C487.255 232.067 487.721 234 488.655 235.6C489.721 237.067 491.055 238.333 492.655 239.4C494.255 240.467 496.055 241.267 498.055 241.8C500.055 242.2 502.055 242.4 504.055 242.4C512.321 242.4 518.388 240.467 522.255 236.6C526.255 232.6 528.255 227.2 528.255 220.4V215ZM577.077 162H599.877V176.4H600.277C603.743 170.533 608.41 166.267 614.277 163.6C620.143 160.933 626.477 159.6 633.277 159.6C640.61 159.6 647.21 160.933 653.077 163.6C658.943 166.133 663.943 169.667 668.077 174.2C672.21 178.733 675.343 184.067 677.477 190.2C679.61 196.333 680.677 202.933 680.677 210C680.677 217.067 679.543 223.667 677.277 229.8C675.01 235.933 671.81 241.267 667.677 245.8C663.677 250.333 658.81 253.933 653.077 256.6C647.343 259.133 641.077 260.4 634.277 260.4C629.743 260.4 625.743 259.933 622.277 259C618.81 258.067 615.743 256.867 613.077 255.4C610.41 253.933 608.143 252.4 606.277 250.8C604.41 249.067 602.877 247.4 601.677 245.8H601.077V303.6H577.077V162ZM656.677 210C656.677 206.267 656.01 202.667 654.677 199.2C653.477 195.733 651.61 192.667 649.077 190C646.677 187.333 643.743 185.2 640.277 183.6C636.81 182 632.877 181.2 628.477 181.2C624.077 181.2 620.143 182 616.677 183.6C613.21 185.2 610.21 187.333 607.677 190C605.277 192.667 603.41 195.733 602.077 199.2C600.877 202.667 600.277 206.267 600.277 210C600.277 213.733 600.877 217.333 602.077 220.8C603.41 224.267 605.277 227.333 607.677 230C610.21 232.667 613.21 234.8 616.677 236.4C620.143 238 624.077 238.8 628.477 238.8C632.877 238.8 636.81 238 640.277 236.4C643.743 234.8 646.677 232.667 649.077 230C651.61 227.333 653.477 224.267 654.677 220.8C656.01 217.333 656.677 213.733 656.677 210ZM754.253 188.6C749.586 182.067 743.32 178.8 735.453 178.8C732.253 178.8 729.12 179.6 726.053 181.2C722.986 182.8 721.453 185.4 721.453 189C721.453 191.933 722.72 194.067 725.253 195.4C727.786 196.733 730.986 197.867 734.853 198.8C738.72 199.733 742.853 200.733 747.253 201.8C751.786 202.733 755.986 204.267 759.853 206.4C763.72 208.4 766.92 211.2 769.453 214.8C771.986 218.4 773.253 223.333 773.253 229.6C773.253 235.333 771.986 240.2 769.453 244.2C767.053 248.067 763.853 251.2 759.853 253.6C755.986 256 751.586 257.733 746.653 258.8C741.72 259.867 736.786 260.4 731.853 260.4C724.386 260.4 717.52 259.333 711.253 257.2C704.986 255.067 699.386 251.2 694.453 245.6L710.453 230.6C713.52 234.067 716.786 236.933 720.253 239.2C723.853 241.333 728.186 242.4 733.253 242.4C734.986 242.4 736.786 242.2 738.653 241.8C740.52 241.4 742.253 240.733 743.853 239.8C745.453 238.867 746.72 237.733 747.653 236.4C748.72 234.933 749.253 233.267 749.253 231.4C749.253 228.067 747.986 225.6 745.453 224C742.92 222.4 739.72 221.133 735.853 220.2C731.986 219.133 727.786 218.2 723.253 217.4C718.853 216.467 714.72 215.067 710.853 213.2C706.986 211.2 703.786 208.467 701.253 205C698.72 201.533 697.453 196.733 697.453 190.6C697.453 185.267 698.52 180.667 700.653 176.8C702.92 172.8 705.853 169.533 709.453 167C713.053 164.467 717.186 162.6 721.853 161.4C726.52 160.2 731.253 159.6 736.053 159.6C742.453 159.6 748.786 160.733 755.053 163C761.32 165.133 766.386 168.867 770.253 174.2L754.253 188.6Z" fill="white"/>
<path d="M68.6806 14.3636V58H59.4547V14.3636H68.6806ZM127.77 14.3636V58H119.801L100.817 30.5355H100.497V58H91.2711V14.3636H99.3677L118.203 41.8068H118.586V14.3636H127.77ZM148.73 21.9702V14.3636H184.568V21.9702H171.209V58H162.09V21.9702H148.73ZM205.47 58V14.3636H234.874V21.9702H214.696V32.3679H233.361V39.9744H214.696V50.3935H234.959V58H205.47ZM257.209 58V14.3636H274.425C277.72 14.3636 280.532 14.9531 282.862 16.1321C285.206 17.2969 286.988 18.9517 288.21 21.0966C289.446 23.2273 290.064 25.7344 290.064 28.6179C290.064 31.5156 289.439 34.0085 288.189 36.0966C286.939 38.1705 285.128 39.7614 282.756 40.8693C280.398 41.9773 277.542 42.5312 274.19 42.5312H262.663V35.1165H272.699C274.46 35.1165 275.923 34.875 277.088 34.392C278.253 33.9091 279.119 33.1847 279.687 32.2188C280.27 31.2528 280.561 30.0526 280.561 28.6179C280.561 27.169 280.27 25.9474 279.687 24.9531C279.119 23.9588 278.246 23.206 277.067 22.6946C275.902 22.169 274.432 21.9062 272.656 21.9062H266.434V58H257.209ZM280.774 38.142L291.619 58H281.434L270.824 38.142H280.774ZM348.082 14.3636V58H340.113L321.129 30.5355H320.809V58H311.584V14.3636H319.68L338.515 41.8068H338.899V14.3636H348.082ZM378.226 58H368.34L383.404 14.3636H395.293L410.335 58H400.449L389.519 24.3352H389.178L378.226 58ZM377.608 40.848H400.96V48.0497H377.608V40.848ZM423.594 21.9702V14.3636H459.432V21.9702H446.072V58H436.953V21.9702H423.594ZM489.559 14.3636V58H480.334V14.3636H489.559ZM552.249 36.1818C552.249 40.9403 551.347 44.9886 549.544 48.3267C547.754 51.6648 545.311 54.2145 542.214 55.9759C539.132 57.723 535.666 58.5966 531.816 58.5966C527.938 58.5966 524.458 57.7159 521.376 55.9545C518.294 54.1932 515.857 51.6435 514.068 48.3054C512.278 44.9673 511.383 40.9261 511.383 36.1818C511.383 31.4233 512.278 27.375 514.068 24.0369C515.857 20.6989 518.294 18.1562 521.376 16.4091C524.458 14.6477 527.938 13.767 531.816 13.767C535.666 13.767 539.132 14.6477 542.214 16.4091C545.311 18.1562 547.754 20.6989 549.544 24.0369C551.347 27.375 552.249 31.4233 552.249 36.1818ZM542.896 36.1818C542.896 33.0994 542.434 30.5 541.511 28.3835C540.602 26.267 539.316 24.6619 537.654 23.5682C535.992 22.4744 534.046 21.9276 531.816 21.9276C529.586 21.9276 527.64 22.4744 525.978 23.5682C524.316 24.6619 523.024 26.267 522.1 28.3835C521.191 30.5 520.737 33.0994 520.737 36.1818C520.737 39.2642 521.191 41.8636 522.1 43.9801C523.024 46.0966 524.316 47.7017 525.978 48.7955C527.64 49.8892 529.586 50.4361 531.816 50.4361C534.046 50.4361 535.992 49.8892 537.654 48.7955C539.316 47.7017 540.602 46.0966 541.511 43.9801C542.434 41.8636 542.896 39.2642 542.896 36.1818ZM610.582 14.3636V58H602.613L583.629 30.5355H583.309V58H574.084V14.3636H582.18L601.015 41.8068H601.399V14.3636H610.582ZM640.726 58H630.84L645.904 14.3636H657.793L672.835 58H662.949L652.019 24.3352H651.678L640.726 58ZM640.108 40.848H663.46V48.0497H640.108V40.848ZM693.088 58V14.3636H702.313V50.3935H721.021V58H693.088Z" fill="white"/>
</svg>
