<svg width="610" height="80" viewBox="0 0 610 80" fill="none" xmlns="http://www.w3.org/2000/svg">
<path d="M0 52.1181H16.9663C18.6296 60.9893 26.5026 65.4248 36.7043 65.4248C45.9082 65.4248 55.2234 62.5417 55.2234 56.221C55.2234 40.8074 3.10557 52.7834 3.10557 23.2868C3.10557 8.31669 16.9663 0 34.3763 0C54.1143 0 67.6427 10.978 69.5278 27.7224H52.451C50.7877 19.9601 45.9082 14.4156 33.0453 14.4156C25.5047 14.4156 19.7388 17.9641 19.7388 22.2888C19.7388 35.9282 71.8566 26.3917 71.8566 56.221C71.8566 71.8564 55.9994 79.8405 38.9226 79.8405C16.1903 79.8405 1.99644 70.7476 0 52.1181Z" fill="white"/>
<path d="M83.5638 57.108V31.049H75.5803V17.7422H83.5638V1.10883H99.0886V17.7422H122.597V31.049H99.0886V56.6644C99.0886 62.6525 102.748 64.3158 106.962 64.3158H122.597V78.7314H103.524C93.655 78.7314 83.5638 74.4068 83.5638 57.108Z" fill="white"/>
<path d="M127.555 17.7408H143.08V28.2753C147.627 20.7348 155.278 17.7408 165.923 17.7408H172.799V31.0476H165.923C151.619 31.0476 143.08 40.1406 143.08 49.677V78.7301H127.555V17.7408Z" fill="white"/>
<path d="M171.518 48.2356C171.518 27.6102 184.27 16.632 205.672 16.632C227.849 16.632 239.826 28.4973 239.826 48.2356V50.5643H187.153C188.04 59.5464 194.472 64.8691 205.672 64.8691C213.766 64.8691 219.533 62.2077 222.305 56.885H239.049C235.723 71.8551 223.747 79.8391 205.672 79.8391C183.494 79.8391 171.518 67.974 171.518 48.2356ZM222.194 39.2536C219.311 34.3744 213.766 31.6022 205.672 31.6022C197.798 31.6022 192.032 34.2635 189.149 39.2536H222.194Z" fill="white"/>
<path d="M243.739 48.2356C243.739 27.6102 254.273 16.632 275.675 16.632C286.653 16.632 292.974 19.5152 296.522 24.8379V17.741H312.047V78.7302H296.522V71.5224C292.863 76.9559 286.542 79.8391 275.675 79.8391C253.497 79.8391 243.739 67.974 243.739 48.2356ZM277.893 64.8691C289.647 64.8691 296.522 59.1028 296.522 48.2356C296.522 37.812 289.98 31.6022 277.893 31.6022C266.138 31.6022 259.263 37.3684 259.263 48.2356C259.263 58.6592 265.806 64.8691 277.893 64.8691Z" fill="white"/>
<path d="M349.048 31.6022C339.178 31.6022 334.521 36.4813 334.521 45.4634V78.7302H318.997V17.741H334.521V23.0637C337.737 18.8499 343.17 16.632 352.374 16.632C362.465 16.632 370.006 20.5132 374.441 27.4992C378.1 20.4023 384.976 16.632 396.952 16.632C413.807 16.632 423.676 27.4992 423.676 45.4634V78.7302H408.152V45.4634C408.152 36.9249 403.827 31.6022 393.625 31.6022C383.756 31.6022 379.099 36.4813 379.099 45.4634V78.7302H363.574V45.4634C363.574 36.9249 359.249 31.6022 349.048 31.6022Z" fill="white"/>
<path d="M444.752 1.10883V78.7315H429.227V1.10883H444.752Z" fill="white"/>
<path d="M466.841 17.7422V78.7314H451.316V17.7422H466.841Z" fill="white"/>
<path d="M466.841 1.10883H451.316V11.0888H466.841V1.10883Z" fill="#1CE783"/>
<path d="M505.025 31.6022C495.156 31.6022 488.281 36.4813 488.281 45.4634V78.7302H472.756V17.741H488.281V24.6161C491.94 19.4043 498.15 16.632 508.351 16.632C525.207 16.632 537.294 27.4992 537.294 45.4634V78.7302H521.769V45.4634C521.769 36.9249 515.227 31.6022 505.025 31.6022Z" fill="white"/>
<path d="M541.406 48.2356C541.406 27.6102 554.159 16.632 575.56 16.632C597.738 16.632 609.714 28.4973 609.714 48.2356V50.5643H557.042C557.929 59.5464 564.36 64.8691 575.56 64.8691C583.655 64.8691 589.421 62.2077 592.194 56.885H608.938C605.611 71.8551 593.635 79.8391 575.56 79.8391C553.382 79.8391 541.406 67.974 541.406 48.2356ZM592.083 39.2536C589.2 34.3744 583.655 31.6022 575.56 31.6022C567.687 31.6022 561.921 34.2635 559.038 39.2536H592.083Z" fill="white"/>
</svg>
