<svg width="900" height="183" viewBox="0 0 900 183" fill="none" xmlns="http://www.w3.org/2000/svg">
<g clip-path="url(#clip0_382_698)">
<path d="M128.681 0H183.415L111.644 182.691H88.808H61.9843H39.873L0 0H54.3722L79.7458 134.118L128.681 0Z" fill="#00FF66"/>
<path opacity="0.41" d="M183.415 0L111.644 182.691H88.808L79.7461 134.118L128.681 0H183.415Z" fill="url(#paint0_linear_382_698)"/>
<path d="M194.424 0H246.632L230.271 182.741H178.062L194.424 0Z" fill="#00FF66"/>
<path d="M357.321 0H322.523H270.326L266.7 39.1479L254.013 182.691H306.21H339.197C363.12 182.691 424.38 160.941 424.38 79.0209C424.38 42.0478 400.818 0 357.321 0ZM329.048 143.542H309.473L318.897 39.1479H339.197C350.796 39.1479 372.183 51.4724 372.183 83.3706C372.183 115.269 354.059 143.542 329.048 143.542Z" fill="#00FF66"/>
<path opacity="0.41" d="M266.7 39.1479H318.897L306.21 182.691H254.013L266.7 39.1479Z" fill="url(#paint1_linear_382_698)"/>
<path d="M535.73 0H500.931H448.734L445.109 39.1479L432.422 182.691H484.619H517.605C541.529 182.691 602.789 160.941 602.789 79.0209C602.789 42.0478 579.227 0 535.73 0ZM507.456 143.542H487.881L497.306 39.1479H517.605C529.205 39.1479 550.59 51.4724 550.59 83.3706C550.59 115.269 532.467 143.542 507.456 143.542Z" fill="#00FF66"/>
<path opacity="0.41" d="M445.109 39.1479H497.306L484.619 182.691H432.422L445.109 39.1479Z" fill="url(#paint2_linear_382_698)"/>
<path d="M666.653 143.542H745.311L741.686 182.691H663.027H610.83L627.143 0H679.34L666.653 143.542Z" fill="#00FF66"/>
<path opacity="0.41" d="M741.324 182.691H663.028L666.289 143.543H744.948L741.324 182.691Z" fill="url(#paint3_linear_382_698)"/>
<path d="M822.066 0H900L896.374 39.1479H818.442L815.541 71.7712H867.376L863.751 110.919H812.28L809.379 143.542H888.037L884.413 182.691H805.755H753.558L766.243 39.1479L769.506 0H822.066Z" fill="#00FF66"/>
<path opacity="0.41" d="M766.243 39.1479H818.442L805.755 182.691H753.558L766.243 39.1479Z" fill="url(#paint4_linear_382_698)"/>
</g>
<defs>
<linearGradient id="paint0_linear_382_698" x1="73.6501" y1="99.5466" x2="197.13" y2="77.7739" gradientUnits="userSpaceOnUse">
<stop stop-opacity="0.8"/>
<stop offset="0.05543" stop-opacity="0.5543"/>
<stop offset="0.2662" stop-opacity="0"/>
</linearGradient>
<linearGradient id="paint1_linear_382_698" x1="286.455" y1="39.1481" x2="286.455" y2="182.691" gradientUnits="userSpaceOnUse">
<stop offset="0.06138" stop-opacity="0.8"/>
<stop offset="0.2125" stop-opacity="0"/>
</linearGradient>
<linearGradient id="paint2_linear_382_698" x1="464.864" y1="39.1481" x2="464.864" y2="182.691" gradientUnits="userSpaceOnUse">
<stop offset="0.06138" stop-opacity="0.8"/>
<stop offset="0.2125" stop-opacity="0"/>
</linearGradient>
<linearGradient id="paint3_linear_382_698" x1="664.26" y1="156.111" x2="743.602" y2="170.102" gradientUnits="userSpaceOnUse">
<stop offset="0.00194" stop-opacity="0.8"/>
<stop offset="0.6213" stop-opacity="0"/>
</linearGradient>
<linearGradient id="paint4_linear_382_698" x1="786" y1="39.1481" x2="786" y2="182.691" gradientUnits="userSpaceOnUse">
<stop offset="0.06138" stop-opacity="0.8"/>
<stop offset="0.2125" stop-opacity="0"/>
</linearGradient>
<clipPath id="clip0_382_698">
<rect width="900" height="183" fill="white"/>
</clipPath>
</defs>
</svg>
